<svg width="155" height="54" viewBox="0 0 155 54" fill="none" xmlns="http://www.w3.org/2000/svg">
<path d="M71.3571 10.4724V24.7608H67.8795V10.4724H62.9655V7.1208H76.2711V10.4724H71.3571Z" fill="white"/>
<path d="M77.9739 24.7608H74.6475V11.7576H77.9739V13.1688C78.3519 12.2868 79.4607 11.5308 80.9979 11.5308H82.0059V14.7816H80.4435C79.1835 14.7816 77.9739 15.5628 77.9739 17.3016V24.7608Z" fill="white"/>
<path d="M90.6961 16.2936C90.4693 15.1092 89.6629 14.4036 88.2769 14.4036C87.0925 14.4036 86.3113 14.958 85.9837 15.8436H82.6321C83.1613 13.122 85.0513 11.4084 88.2769 11.4084C92.0065 11.4084 94.0729 13.7772 94.0729 17.3808V24.7608H90.7465V23.274C90.1417 24.2568 89.1265 25.0128 87.1177 25.0128C84.0937 25.0128 82.3801 23.5728 82.3801 21.1572C82.3801 19.242 83.0353 18.1584 84.8497 17.2764C86.1097 16.6968 88.7305 16.4448 90.6961 16.3188V16.2936ZM85.7065 20.7792C85.7065 21.4092 86.1853 22.0896 87.6721 22.0896C89.3857 22.0896 90.7465 21.132 90.7465 19.494V19.0656C88.8313 19.1916 87.0421 19.3428 86.4121 19.6704C85.8325 19.9476 85.7065 20.1996 85.7065 20.7792Z" fill="white"/>
<path d="M106.848 20.0232C106.47 23.1228 104.529 25.0128 101.102 25.0128C97.3724 25.0128 95.306 22.644 95.306 19.0404V17.3772C95.306 13.7772 97.3724 11.4048 101.102 11.4048C104.522 11.4048 106.47 13.2948 106.848 16.3944H103.521C103.321 15.1848 102.513 14.4 101.102 14.4C99.482 14.4 98.6324 15.408 98.6324 16.9452V19.4652C98.6324 21.0024 99.4892 22.0104 101.102 22.0104C102.513 22.0104 103.345 21.2544 103.521 20.0196L106.848 20.0232Z" fill="white"/>
<path d="M111.349 16.2936L115.507 11.7576H119.539L114.827 16.8732L120.227 24.7608H116.321L112.591 19.3176L111.357 20.6784V24.7608H108.023V7.1208H111.349V16.2936Z" fill="white"/>
<path d="M124.164 10.0692H120.837V7.1208H124.164V10.0692ZM124.164 24.7608H120.837V11.7576H124.164V24.7608Z" fill="white"/>
<path d="M137.532 24.7608H134.206V17.1756C134.206 15.4368 132.996 14.6556 131.736 14.6556C130.476 14.6556 129.267 15.4368 129.267 17.1756V24.7608H125.94V11.7576H129.267V12.8916C129.871 12.0096 131.131 11.4048 132.316 11.4048C134.962 11.4048 137.536 13.2192 137.536 17.0496L137.532 24.7608Z" fill="white"/>
<path d="M142.111 24.84C142.389 25.974 143.17 26.6544 144.505 26.6544C146.125 26.6544 146.975 25.6464 146.975 24.1092V22.5972C146.37 23.4792 145.11 24.084 143.926 24.084C141.28 24.084 138.706 22.2696 138.706 18.4392V17.0532C138.706 13.2228 141.276 11.4084 143.926 11.4084C145.11 11.4084 146.37 12.0132 146.975 12.8952V11.7612H150.301V23.6808C150.301 27.2808 148.235 29.6532 144.505 29.6532C141.154 29.6532 139.188 27.8388 138.785 24.84H142.111ZM142.036 18.3132C142.036 20.052 143.245 20.8332 144.505 20.8332C145.765 20.8332 146.975 20.052 146.975 18.3132V17.1792C146.975 15.4404 145.765 14.6592 144.505 14.6592C143.245 14.6592 142.036 15.4404 142.036 17.1792V18.3132Z" fill="white"/>
<path d="M68.675 35.8362H76.0334V39.1878H68.675V43.0686H76.0334V46.4202H65.2982V28.7802H76.0334V32.1318H68.675V35.8362Z" fill="white"/>
<path d="M85.9802 33.417H89.7602L85.5518 39.7422L89.9618 46.4202H86.1566L83.5862 42.4386L81.0158 46.4202H77.2106L81.6206 39.7422L77.4122 33.417H81.1922L83.5862 37.0962L85.9802 33.417Z" fill="white"/>
<path d="M94.5931 51.057H91.2614V33.417H94.5878V34.56C95.1926 33.678 96.4526 33.0732 97.637 33.0732C100.283 33.0732 102.857 34.8876 102.857 38.718V41.0364C102.857 44.8668 100.287 46.6812 97.637 46.6812C96.4526 46.6812 95.1926 46.0764 94.5878 45.1944L94.5931 51.057ZM99.5413 38.835C99.5413 37.0962 98.3318 36.315 97.0718 36.315C95.8118 36.315 94.6021 37.0962 94.6021 38.835V40.9014C94.6021 42.6402 95.8118 43.4214 97.0718 43.4214C98.3318 43.4214 99.5413 42.6402 99.5413 40.9014V38.835Z" fill="white"/>
<path d="M104.529 39.0366C104.529 35.4366 106.596 33.0642 110.325 33.0642C114.055 33.0642 116.121 35.433 116.121 39.0366V40.6998C116.121 44.2998 114.055 46.6722 110.325 46.6722C106.596 46.6722 104.529 44.3034 104.529 40.6998V39.0366ZM112.795 38.6082C112.795 37.071 111.938 36.063 110.325 36.063C108.712 36.063 107.856 37.071 107.856 38.6082V41.1282C107.856 42.6654 108.712 43.6734 110.325 43.6734C111.938 43.6734 112.795 42.6654 112.795 41.1282V38.6082Z" fill="white"/>
<path d="M117.477 42.2118H120.803C120.929 43.2198 122.164 43.6734 123.222 43.6734C123.877 43.6734 124.86 43.5222 124.86 42.6654C124.86 42.1614 124.482 41.8338 123.701 41.6574L120.979 41.0526C119.568 40.725 117.779 39.6126 117.779 37.071C117.779 34.5294 120.072 33.0642 122.743 33.0642C125.364 33.0642 127.582 34.3242 127.783 37.2726H124.381C124.201 36.441 123.481 36.063 122.643 36.063C121.66 36.063 121.131 36.441 121.105 37.0458C121.08 37.6506 121.534 37.8774 122.113 38.0034L125.037 38.6586C126.448 38.9862 128.187 39.969 128.187 42.6654C128.187 45.5886 125.818 46.6722 123.121 46.6722C120.425 46.6722 117.603 45.3114 117.477 42.2118Z" fill="white"/>
<path d="M132.913 41.0526V41.1282C132.913 42.6654 133.77 43.6734 135.383 43.6734C136.567 43.6734 137.349 43.119 137.676 42.2334H141.053C140.524 44.955 138.609 46.6686 135.383 46.6686C131.653 46.6686 129.587 44.2998 129.587 40.6962V39.033C129.587 35.433 131.653 33.0606 135.383 33.0606C139.113 33.0606 141.179 35.4294 141.179 39.033V41.049L132.913 41.0526ZM132.913 38.2806V38.3058H137.827V38.2806C137.727 36.8946 136.895 36.063 135.383 36.063C133.871 36.063 133.039 36.945 132.913 38.2806Z" fill="white"/>
<path d="M151.057 45.18C150.453 46.062 149.193 46.6668 148.008 46.6668C145.362 46.6668 142.788 44.8524 142.788 41.022V38.709C142.788 34.8786 145.359 33.0642 148.008 33.0642C149.193 33.0642 150.453 33.669 151.057 34.551V28.7802H154.384V46.4202H151.057V45.18ZM146.118 40.896C146.118 42.6348 147.328 43.416 148.588 43.416C149.848 43.416 151.057 42.6348 151.057 40.896V38.835C151.057 37.0962 149.848 36.315 148.588 36.315C147.328 36.315 146.118 37.0962 146.118 38.835V40.896Z" fill="white"/>
<path d="M54.1364 27C54.136 20.1503 51.5387 13.5555 46.8683 8.54502C42.1978 3.53453 35.8015 0.480999 28.9688 0V3.8088C40.9135 4.779 50.3365 14.8086 50.3365 27C50.3365 39.1914 40.9135 49.221 28.9688 50.1912V54C35.8015 53.519 42.1978 50.4655 46.8683 45.455C51.5387 40.4445 54.136 33.8497 54.1364 27Z" fill="white"/>
<path d="M3.80121 27C3.80121 14.8086 13.2242 4.779 25.169 3.8088V0C18.3358 0.480244 11.9389 3.5335 7.26809 8.54412C2.59726 13.5547 0 20.15 0 27C0 33.85 2.59726 40.4453 7.26809 45.4559C11.9389 50.4665 18.3358 53.5198 25.169 54V50.1912C13.2242 49.221 3.80121 39.1914 3.80121 27Z" fill="white"/>
<path d="M17.8088 10.962C13.8417 13.2535 10.8647 16.934 9.4528 21.2923C8.04091 25.6507 8.29435 30.3776 10.1642 34.56L13.4798 32.6448C12.1063 29.3446 11.981 25.6573 13.1272 22.2715C14.2734 18.8856 16.6127 16.0327 19.7084 14.2454C22.804 12.458 26.4444 11.8585 29.9497 12.5587C33.455 13.2589 36.5857 15.2109 38.7572 18.0504L42.0746 16.137C39.3867 12.4253 35.4182 9.84183 30.9362 8.88599C26.4542 7.93016 21.7771 8.66982 17.8088 10.962Z" fill="white"/>
<path d="M34.43 39.7494C31.3324 41.5314 27.693 42.1278 24.1887 41.4275C20.6844 40.7272 17.5537 38.778 15.3788 35.9424L12.0614 37.8558C14.7493 41.5643 18.7159 44.1453 23.1953 45.1006C27.6747 46.0559 32.3492 45.3176 36.3161 43.0284C40.2831 40.7391 43.2612 37.0612 44.6754 32.7049C46.0896 28.3486 45.8396 23.6228 43.9736 19.44L40.658 21.348C42.0265 24.6491 42.1493 28.3348 41.0037 31.7197C39.8581 35.1045 37.522 37.958 34.43 39.7494Z" fill="white"/>
<path d="M32.054 18.36C30.0489 17.203 27.7039 16.7795 25.4208 17.1621C23.1377 17.5447 21.0588 18.7096 19.5404 20.457L22.9316 22.4154C23.9001 21.5401 25.1211 20.9944 26.4192 20.8567C27.7173 20.719 29.0257 20.9964 30.1562 21.6491C31.2867 22.3018 32.1812 23.2961 32.7111 24.4891C33.241 25.6821 33.379 27.0124 33.1052 28.2888L36.4964 30.2454C37.2504 28.0566 37.2194 25.6737 36.4089 23.5052C35.5984 21.3367 34.0588 19.5177 32.054 18.36Z" fill="white"/>
<path d="M23.9827 32.346C22.8534 31.6923 21.9598 30.6982 21.4299 29.5058C20.9 28.3134 20.7609 26.9839 21.0325 25.7076L17.6413 23.76C16.8872 25.9487 16.9181 28.3316 17.7287 30.5C18.5392 32.6685 20.079 34.4873 22.0839 35.6447C24.0887 36.8021 26.4338 37.2259 28.717 36.8434C31.0002 36.4609 33.0791 35.296 34.5973 33.5484L31.2043 31.59C30.2344 32.462 29.0135 33.0048 27.7163 33.1406C26.4191 33.2764 25.1122 32.9982 23.9827 32.346Z" fill="white"/>
</svg>
