<svg width="172" height="52" viewBox="0 0 172 52" fill="none" xmlns="http://www.w3.org/2000/svg">
<path d="M171.028 28.1726C170.366 26.4157 169.4 24.8831 168.16 23.6177C166.987 22.4183 165.568 21.3785 163.942 20.5278C162.489 19.7704 160.836 19.0144 159.019 18.278L156.018 17.0909C155.167 16.7642 154.434 16.3761 153.838 15.9368C153.724 15.8526 153.719 15.443 153.719 15.3615C153.719 15.0544 153.774 14.9442 153.773 14.9442C153.832 14.8471 153.892 14.7876 153.977 14.7396C154.217 14.6046 154.507 14.5007 154.841 14.4316C155.265 14.3437 155.724 14.2998 156.205 14.2998C158.055 14.2998 159.586 14.5025 160.755 14.903C162.133 15.3752 163.348 15.8329 164.366 16.2635L166.663 17.2351L167.725 14.9785C168.444 13.4481 169.049 11.7947 169.521 10.0648C169.985 8.37022 170.311 6.77857 170.491 5.33473L170.751 3.25889L168.778 2.56512C166.45 1.74595 164.224 1.11029 162.161 0.675541C160.028 0.227974 157.795 6.86646e-05 155.523 6.86646e-05C154.548 6.86646e-05 153.593 0.0494919 152.669 0.146969V0.045372H108.096L106.301 9.71933L104.682 0.045372H84.7294L84.5669 1.43796C81.9071 0.513538 78.7051 0.045372 75.0188 0.045372H0V51.1893H77.2557V44.4827L79.7672 51.1893H113.145L114.466 44.5225L114.628 51.1893H149.881C150.566 51.2191 151.255 51.2351 151.929 51.2351C154.988 51.2351 157.762 50.8507 160.174 50.0924C162.664 49.3103 164.812 48.1639 166.557 46.6844C168.346 45.1705 169.718 43.3304 170.636 41.2175C171.541 39.1407 172 36.8008 172 34.2628C172 31.9394 171.673 29.891 171.028 28.1726Z" fill="#134E4A"/>
<path d="M42.8805 48.5945H59.9512V37.5825H44.2172V30.5285H58.8501V19.5159H44.2172V13.6522H59.9512V2.64016H42.8805V2.61682H37.0736L25.9068 25.3293H32.1595L29.9299 33.3306H30.058C32.6267 33.3306 34.7094 35.4133 34.7094 37.9824V38.4035C34.7094 40.9731 32.6267 43.0553 30.058 43.0553H28.2183C27.8856 43.0553 27.5648 43.0086 27.2518 42.9414L25.6761 48.5945H42.7189H42.8805Z" fill="white"/>
<g opacity="0.800003">
<path d="M74.7341 23.2659H75.5679C76.9962 23.2659 78.186 22.7209 79.1388 21.629C80.0916 20.5384 80.5671 19.1495 80.5671 17.4618C80.5671 14.0299 78.7714 12.3134 75.1803 12.3134H74.7341V23.2659ZM95.0023 48.5947H81.579L75.4485 32.2255C75.3894 31.9473 75.2846 31.5807 75.1364 31.124C74.9872 30.6682 74.8027 30.1218 74.5858 29.487L74.6742 32.523V48.5947H62.3235V2.64032H75.0316C80.6271 2.64032 84.8135 3.74184 87.5918 5.94399C91.1234 8.76211 92.8894 12.7701 92.8894 17.9684C92.8894 23.5241 90.518 27.3636 85.7764 29.487L95.0023 48.5947Z" fill="white"/>
</g>
<g opacity="0.600006">
<path d="M129.733 48.5946H117.173L116.667 27.6413L116.263 19.278C116.119 20.8852 115.953 22.4183 115.768 23.8758C115.582 25.3343 115.354 26.7493 115.086 28.1181L111.027 48.5946H100.714L97.3801 28.0875C97.1815 26.8971 96.9133 24.8543 96.5765 21.957C96.5353 21.5208 96.4469 20.628 96.3092 19.278L96.0104 27.7607L94.9093 48.5946H81.6951L87.0517 2.64018H102.499L105.089 18.117C105.307 19.3878 105.5 20.7662 105.669 22.254C105.836 23.7427 105.992 25.3599 106.131 27.1054C106.383 24.1889 106.732 21.5799 107.179 19.278L110.267 2.64018H125.269L129.733 48.5946Z" fill="white"/>
</g>
<g opacity="0.399994">
<path d="M121.94 48.5946V2.64018H150.088V13.6523H134.352V19.5159H148.986V30.5285H134.352V37.5825H150.088V48.5946H121.94Z" fill="white"/>
</g>
<g opacity="0.220001">
<path d="M158.077 20.6904C159.812 21.3938 161.371 22.1063 162.756 22.8285C164.139 23.5525 165.328 24.4197 166.319 25.432C167.312 26.4447 168.076 27.6625 168.613 29.088C169.148 30.5136 169.418 32.2384 169.418 34.2625C169.418 36.4528 169.036 38.4256 168.27 40.1807C167.507 41.938 166.381 43.4454 164.894 44.7048C163.407 45.9652 161.578 46.9363 159.409 47.6177C157.24 48.2991 154.75 48.64 151.941 48.64C149.38 48.64 147.118 48.4327 145.156 48.0204C143.193 47.6072 141.076 46.9669 138.803 46.0993C138.968 44.6536 139.258 43.1155 139.672 41.4826C140.084 39.8507 140.58 38.1876 141.159 36.493C144.96 38.1469 148.264 38.972 151.074 38.972C153.181 38.972 154.823 38.6526 156.001 38.0124C157.178 37.3721 157.766 36.267 157.766 34.6959C157.766 34.036 157.643 33.4676 157.396 32.9921C157.147 32.518 156.817 32.1153 156.403 31.783C155.99 31.454 155.527 31.1739 155.01 30.9469C154.491 30.7209 153.966 30.5035 153.43 30.2962L149.959 28.9947C148.472 28.4588 147.118 27.8176 145.899 27.074C144.681 26.3303 143.638 25.4526 142.77 24.4398C141.903 23.428 141.231 22.2619 140.756 20.9389C140.28 19.6168 140.043 18.0677 140.043 16.2912C140.043 14.1018 140.415 12.1605 141.159 10.4659C141.903 8.77222 142.945 7.3357 144.288 6.15866C145.631 4.98162 147.253 4.09289 149.154 3.49385C151.053 2.89572 153.181 2.59505 155.536 2.59505C157.643 2.59505 159.677 2.80236 161.64 3.21469C163.602 3.6284 165.699 4.22744 167.93 5.01228C167.765 6.33531 167.466 7.79105 167.032 9.38087C166.597 10.9721 166.05 12.4699 165.39 13.8739C164.315 13.4195 163.055 12.944 161.61 12.4484C160.163 11.9532 158.365 11.7047 156.218 11.7047C155.557 11.7047 154.926 11.7674 154.329 11.8905C153.728 12.015 153.191 12.2118 152.715 12.48C152.241 12.7486 151.859 13.1207 151.57 13.5948C151.281 14.0707 151.137 14.6597 151.137 15.3613C151.137 16.5607 151.528 17.4485 152.313 18.0261C153.098 18.605 154.027 19.101 155.102 19.5134L158.077 20.6904Z" fill="white"/>
</g>
<path d="M37.6853 14.4212C36.9576 14.4212 36.3687 15.0111 36.3687 15.7378C36.3687 16.4655 36.9576 17.0544 37.6853 17.0544C38.412 17.0544 39.001 16.4655 39.001 15.7378C39.001 15.0111 38.412 14.4212 37.6853 14.4212Z" fill="#134E4A"/>
<path d="M23.9431 48.149L25.5182 42.4958L25.9809 40.8369L27.665 41.198C27.8989 41.2479 28.0842 41.2712 28.2485 41.2712H30.0882C31.6432 41.2712 32.9086 40.0054 32.9086 38.4499V38.0284C32.9086 36.4729 31.6432 35.2075 30.0882 35.2075H29.9596H27.5492L28.1963 32.885L29.7793 27.2058H25.937H22.9971L24.2941 24.568L35.0746 2.64036H33.353H23.0191H20.9414V19.0988H15.0183V2.64036H2.60718V48.5947H15.0183V30.1118H20.9414V48.5947H23.0191H23.819L23.9431 48.149Z" fill="white"/>
</svg>
