<svg width="172" height="40" viewBox="0 0 172 40" fill="none" xmlns="http://www.w3.org/2000/svg">
<path d="M35.6388 13.3469L26.7438 4.49855H22.2952V8.92503H17.8465C16.1032 14.4978 13.7979 18.5652 8.96313 22.193V22.2091V31.0713H13.3956C13.9805 31.0719 14.5597 30.9576 15.1002 30.735C15.6406 30.5124 16.1316 30.1858 16.5451 29.774C16.9585 29.3621 17.2863 28.8731 17.5096 28.335C17.733 27.7968 17.8475 27.2201 17.8465 26.6379H26.7438L22.2952 31.0713L13.3956 39.9219H35.6388C36.8183 39.9213 37.9492 39.4544 38.783 38.6239C39.6168 37.7934 40.0851 36.6673 40.0851 35.4931V17.7826L35.6388 13.3469Z" fill="white"/>
<path d="M4.50628 0.0331573H8.963V4.49876H4.50628V8.96435H0.0495605V4.49876C0.0495605 2.03246 2.04492 0.0331573 4.50628 0.0331573Z" fill="white"/>
<path d="M40.085 4.49857L40.085 8.96422L35.6283 8.96422L35.6283 4.49857L31.1716 4.49857L31.1716 0.0329128L35.6283 0.032913C38.0897 0.0329131 40.085 2.03227 40.085 4.49857Z" fill="white"/>
<path d="M0.0495606 35.4564L0.0495607 30.9907L4.50622 30.9907L4.50622 35.4564L8.96289 35.4564L8.96289 39.9221L4.50622 39.9221C2.04486 39.9221 0.0495606 37.9227 0.0495606 35.4564Z" fill="white"/>
<path d="M69.0158 20.3744C69.0158 17.9513 70.7076 16.8627 72.3642 16.8627C74.0208 16.8627 75.7126 17.9513 75.7126 20.3744V30.9448H80.3651V20.1989C80.3651 14.8961 76.9815 12.3325 72.3642 12.3325C69.8617 12.3325 67.9936 13.1402 66.6895 14.7205C65.4207 13.0349 63.6936 12.3325 61.7903 12.3325C60.2042 12.3325 58.5476 13.1051 57.6664 14.3342V12.8242H53.0139V30.9448H57.6664V20.3744C57.6664 17.9513 59.3583 16.8627 61.0149 16.8627C62.6714 16.8627 64.3633 17.9513 64.3633 20.3744V30.9448H69.0158V20.3744Z" fill="white"/>
<path d="M93.8882 19.1804C91.139 19.3912 87.5086 19.6721 85.711 20.5149C83.1733 21.7089 82.2569 23.2892 82.2569 25.923C82.2569 29.2592 84.7241 31.296 88.8832 31.296C91.6677 31.296 93.1128 30.2425 93.9587 28.8729V30.9448H98.6112V20.6554C98.6112 15.6336 95.721 12.3325 90.5045 12.3325C86.0635 12.3325 83.3495 14.7205 82.6093 18.5132H87.2971C87.7553 17.2841 88.8832 16.5115 90.5045 16.5115C92.4078 16.5115 93.571 17.5299 93.8882 19.1453V19.1804ZM87.8963 23.8511C88.7775 23.3946 91.3152 23.1839 93.9587 23.0083V23.6053C93.9587 25.8879 92.0554 27.2224 89.6586 27.2224C87.5791 27.2224 86.9094 26.2742 86.9094 25.3963C86.9094 24.6237 87.1209 24.2374 87.8963 23.8511Z" fill="white"/>
<path d="M105.823 6.36253H101.171V30.9448H105.823V25.2558L107.55 23.3594L112.767 30.9448H118.23L110.687 19.953L117.278 12.8242H111.639L105.823 19.1453V6.36253Z" fill="white"/>
<path d="M134.974 20.1989C134.974 14.861 131.379 12.3325 127.678 12.3325C126.057 12.3325 124.224 13.1753 123.413 14.4045V6.36253H118.761V30.9448H123.413V20.3744C123.413 17.9162 125.105 16.8627 126.868 16.8627C128.63 16.8627 130.322 17.9162 130.322 20.3744V30.9448H134.974V20.1989Z" fill="white"/>
<path d="M153.769 20.1989C153.769 14.861 150.174 12.3325 146.473 12.3325C144.852 12.3325 143.019 13.1753 142.208 14.4045V12.8242H137.556V30.9448H142.208V20.3744C142.208 17.9162 143.9 16.8627 145.662 16.8627C147.425 16.8627 149.117 17.9162 149.117 20.3744V30.9448H153.769V20.1989Z" fill="white"/>
<path d="M155.787 22.9731C155.787 27.995 158.677 31.296 163.893 31.296C169.11 31.296 172 27.995 172 22.9731V20.6554C172 15.6336 169.11 12.3325 163.893 12.3325C158.677 12.3325 155.787 15.6336 155.787 20.6554V22.9731ZM167.348 23.5701C167.348 25.7123 166.114 27.117 163.893 27.117C161.673 27.117 160.439 25.7123 160.439 23.5701V20.0584C160.439 17.9162 161.673 16.5115 163.893 16.5115C166.114 16.5115 167.348 17.9162 167.348 20.0584V23.5701Z" fill="white"/>
</svg>
