<svg width="41" height="40" viewBox="0 0 41 40" fill="none" xmlns="http://www.w3.org/2000/svg">
<path d="M35.8792 13.351L26.9921 4.47804H22.5474V8.91683H18.1027C16.3609 14.5051 14.0577 18.5838 9.22717 22.2216V22.2378V31.1246H13.6557C14.2401 31.1252 14.8188 31.0106 15.3588 30.7874C15.8987 30.5641 16.3893 30.2367 16.8024 29.8237C17.2155 29.4107 17.543 28.9204 17.7661 28.3807C17.9892 27.8411 18.1036 27.2628 18.1027 26.6789H26.9921L22.5474 31.1246L13.6557 39.9999H35.8792C37.0576 39.9992 38.1876 39.5311 39.0206 38.6983C39.8536 37.8655 40.3216 36.7362 40.3216 35.5588V17.799L35.8792 13.351Z" fill="#14B8A6"/>
<path d="M4.7743 0.00024581H9.22707V4.47826H4.7743V8.95626H0.321533V4.47826C0.321533 2.0051 2.31512 0.00024581 4.7743 0.00024581Z" fill="#111827"/>
<path d="M40.3215 4.47807L40.3215 8.95613L35.8688 8.95613L35.8688 4.47807L31.4161 4.47807L31.4161 -3.88907e-07L35.8688 -1.94454e-07C38.328 -8.70592e-08 40.3215 2.00491 40.3215 4.47807Z" fill="#111827"/>
<path d="M0.321533 35.5219L0.321533 31.0439L4.77425 31.0439L4.77425 35.5219L9.22696 35.5219L9.22696 40L4.77425 40C2.31507 40 0.321533 37.9951 0.321533 35.5219Z" fill="#111827"/>
</svg>
